<svg width="24" height="24" viewBox="0 0 24 24" fill="none" xmlns="http://www.w3.org/2000/svg">
<path d="M12.22 2H11.78C11.2496 2 10.7409 2.21071 10.3658 2.58579C9.99072 2.96086 9.78 3.46957 9.78 4V4.18C9.77964 4.53073 9.68706 4.87519 9.51154 5.17884C9.33602 5.48248 9.08374 5.73464 8.78 5.91L8.35 6.16C8.04596 6.33554 7.70108 6.42795 7.35 6.42795C6.99893 6.42795 6.65404 6.33554 6.35 6.16L6.2 6.08C5.74107 5.81526 5.19584 5.74344 4.684 5.88031C4.17217 6.01717 3.73555 6.35154 3.47 6.81L3.25 7.19C2.98526 7.64893 2.91345 8.19416 3.05031 8.706C3.18717 9.21783 3.52154 9.65445 3.98 9.92L4.13 10.02C4.43228 10.1945 4.68362 10.4451 4.85905 10.7468C5.03448 11.0486 5.1279 11.391 5.13 11.74V12.25C5.1314 12.6024 5.03965 12.949 4.86405 13.2545C4.68844 13.5601 4.43521 13.8138 4.13 13.99L3.98 14.08C3.52154 14.3456 3.18717 14.7822 3.05031 15.294C2.91345 15.8058 2.98526 16.3511 3.25 16.81L3.47 17.19C3.73555 17.6485 4.17217 17.9828 4.684 18.1197C5.19584 18.2566 5.74107 18.1847 6.2 17.92L6.35 17.84C6.65404 17.6645 6.99893 17.5721 7.35 17.5721C7.70108 17.5721 8.04596 17.6645 8.35 17.84L8.78 18.09C9.08374 18.2654 9.33602 18.5175 9.51154 18.8212C9.68706 19.1248 9.77964 19.4693 9.78 19.82V20C9.78 20.5304 9.99072 21.0391 10.3658 21.4142C10.7409 21.7893 11.2496 22 11.78 22H12.22C12.7504 22 13.2591 21.7893 13.6342 21.4142C14.0093 21.0391 14.22 20.5304 14.22 20V19.82C14.2204 19.4693 14.3129 19.1248 14.4885 18.8212C14.664 18.5175 14.9163 18.2654 15.22 18.09L15.65 17.84C15.954 17.6645 16.2989 17.5721 16.65 17.5721C17.0011 17.5721 17.346 17.6645 17.65 17.84L17.8 17.92C18.2589 18.1847 18.8042 18.2566 19.316 18.1197C19.8278 17.9828 20.2645 17.6485 20.53 17.19L20.75 16.8C21.0147 16.3411 21.0866 15.7958 20.9497 15.284C20.8128 14.7722 20.4785 14.3356 20.02 14.07L19.87 13.99C19.5648 13.8138 19.3116 13.5601 19.136 13.2545C18.9604 12.949 18.8686 12.6024 18.87 12.25V11.75C18.8686 11.3976 18.9604 11.051 19.136 10.7455C19.3116 10.4399 19.5648 10.1862 19.87 10.01L20.02 9.92C20.4785 9.65445 20.8128 9.21783 20.9497 8.706C21.0866 8.19416 21.0147 7.64893 20.75 7.19L20.53 6.81C20.2645 6.35154 19.8278 6.01717 19.316 5.88031C18.8042 5.74344 18.2589 5.81526 17.8 6.08L17.65 6.16C17.346 6.33554 17.0011 6.42795 16.65 6.42795C16.2989 6.42795 15.954 6.33554 15.65 6.16L15.22 5.91C14.9163 5.73464 14.664 5.48248 14.4885 5.17884C14.3129 4.87519 14.2204 4.53073 14.22 4.18V4C14.22 3.46957 14.0093 2.96086 13.6342 2.58579C13.2591 2.21071 12.7504 2 12.22 2V2Z" stroke="#CBCBCB" stroke-width="3" stroke-linecap="round" stroke-linejoin="round"/>
<path d="M12.22 2H11.78C11.2496 2 10.7409 2.21071 10.3658 2.58579C9.99072 2.96086 9.78 3.46957 9.78 4V4.18C9.77964 4.53073 9.68706 4.87519 9.51154 5.17884C9.33602 5.48248 9.08374 5.73464 8.78 5.91L8.35 6.16C8.04596 6.33554 7.70108 6.42795 7.35 6.42795C6.99893 6.42795 6.65404 6.33554 6.35 6.16L6.2 6.08C5.74107 5.81526 5.19584 5.74344 4.684 5.88031C4.17217 6.01717 3.73555 6.35154 3.47 6.81L3.25 7.19C2.98526 7.64893 2.91345 8.19416 3.05031 8.706C3.18717 9.21783 3.52154 9.65445 3.98 9.92L4.13 10.02C4.43228 10.1945 4.68362 10.4451 4.85905 10.7468C5.03448 11.0486 5.1279 11.391 5.13 11.74V12.25C5.1314 12.6024 5.03965 12.949 4.86405 13.2545C4.68844 13.5601 4.43521 13.8138 4.13 13.99L3.98 14.08C3.52154 14.3456 3.18717 14.7822 3.05031 15.294C2.91345 15.8058 2.98526 16.3511 3.25 16.81L3.47 17.19C3.73555 17.6485 4.17217 17.9828 4.684 18.1197C5.19584 18.2566 5.74107 18.1847 6.2 17.92L6.35 17.84C6.65404 17.6645 6.99893 17.5721 7.35 17.5721C7.70108 17.5721 8.04596 17.6645 8.35 17.84L8.78 18.09C9.08374 18.2654 9.33602 18.5175 9.51154 18.8212C9.68706 19.1248 9.77964 19.4693 9.78 19.82V20C9.78 20.5304 9.99072 21.0391 10.3658 21.4142C10.7409 21.7893 11.2496 22 11.78 22H12.22C12.7504 22 13.2591 21.7893 13.6342 21.4142C14.0093 21.0391 14.22 20.5304 14.22 20V19.82C14.2204 19.4693 14.3129 19.1248 14.4885 18.8212C14.664 18.5175 14.9163 18.2654 15.22 18.09L15.65 17.84C15.954 17.6645 16.2989 17.5721 16.65 17.5721C17.0011 17.5721 17.346 17.6645 17.65 17.84L17.8 17.92C18.2589 18.1847 18.8042 18.2566 19.316 18.1197C19.8278 17.9828 20.2645 17.6485 20.53 17.19L20.75 16.8C21.0147 16.3411 21.0866 15.7958 20.9497 15.284C20.8128 14.7722 20.4785 14.3356 20.02 14.07L19.87 13.99C19.5648 13.8138 19.3116 13.5601 19.136 13.2545C18.9604 12.949 18.8686 12.6024 18.87 12.25V11.75C18.8686 11.3976 18.9604 11.051 19.136 10.7455C19.3116 10.4399 19.5648 10.1862 19.87 10.01L20.02 9.92C20.4785 9.65445 20.8128 9.21783 20.9497 8.706C21.0866 8.19416 21.0147 7.64893 20.75 7.19L20.53 6.81C20.2645 6.35154 19.8278 6.01717 19.316 5.88031C18.8042 5.74344 18.2589 5.81526 17.8 6.08L17.65 6.16C17.346 6.33554 17.0011 6.42795 16.65 6.42795C16.2989 6.42795 15.954 6.33554 15.65 6.16L15.22 5.91C14.9163 5.73464 14.664 5.48248 14.4885 5.17884C14.3129 4.87519 14.2204 4.53073 14.22 4.18V4C14.22 3.46957 14.0093 2.96086 13.6342 2.58579C13.2591 2.21071 12.7504 2 12.22 2V2Z" stroke="white" stroke-width="3" stroke-linecap="round" stroke-linejoin="round"/>
<path d="M11.0976 4.18V4.18133C11.097 4.76003 10.9442 5.3284 10.6546 5.82941C10.3654 6.32981 9.94979 6.74544 9.44946 7.03475C9.44883 7.03511 9.44821 7.03547 9.44758 7.03583L9.02099 7.28386L9.01758 7.28584L9.01758 7.28583C8.51592 7.57547 7.94685 7.72795 7.36758 7.72795C6.7965 7.72795 6.23535 7.57975 5.73891 7.29804L5.60582 7.22706C5.5931 7.22027 5.58049 7.21328 5.568 7.20608C5.40737 7.11342 5.21654 7.08828 5.0374 7.13618C4.85834 7.18406 4.70559 7.301 4.61263 7.46135C4.61259 7.46142 4.61255 7.4615 4.6125 7.46158L4.39366 7.83958C4.39353 7.83979 4.39341 7.84001 4.39328 7.84023C4.30093 8.00072 4.27593 8.19128 4.32376 8.37018C4.37167 8.54932 4.48869 8.70214 4.64916 8.79508C4.67278 8.80876 4.69597 8.82319 4.71869 8.83834L4.83817 8.91799C5.31884 9.20471 5.71892 9.60913 6.00049 10.0934C6.28995 10.5913 6.44408 11.1563 6.44756 11.7322L6.4476 11.74H6.44758V12.2477V12.25H5.14758C5.14898 12.6024 5.05723 12.949 4.88162 13.2545C4.70602 13.5601 4.45279 13.8138 4.14758 13.99L11.0976 4.18ZM11.0976 4.18V4C11.0976 3.81435 11.1713 3.6363 11.3026 3.50503C11.4339 3.37375 11.6119 3.3 11.7976 3.3H12.2376C12.4232 3.3 12.6013 3.37375 12.7326 3.50503C12.8638 3.6363 12.9376 3.81435 12.9376 4V4.18L12.9376 4.18133M11.0976 4.18L12.9376 4.18133M17.5876 12.2478C17.5858 12.8283 17.7372 13.399 18.0264 13.9023C18.3162 14.4064 18.734 14.8251 19.2376 15.1158C19.2502 15.1231 19.263 15.1302 19.2758 15.1371L19.4005 15.2036C19.5535 15.2972 19.665 15.4461 19.7114 15.6198C19.7593 15.799 19.7342 15.9898 19.6415 16.1504L19.6415 16.1504L19.6353 16.1613L19.4199 16.5432C19.3267 16.7012 19.1751 16.8164 18.9978 16.8638C18.8186 16.9117 18.6278 16.8866 18.4672 16.7939C18.4547 16.7867 18.4421 16.7797 18.4293 16.7729L18.2962 16.7019C17.7998 16.4202 17.2386 16.272 16.6676 16.272C16.0883 16.272 15.5192 16.4245 15.0176 16.7142L15.0142 16.7161L14.5876 16.9642C14.587 16.9645 14.5865 16.9648 14.5859 16.9651C14.0855 17.2544 13.6698 17.6701 13.3805 18.1706C13.0909 18.6716 12.9382 19.24 12.9376 19.8187V19.82V20C12.9376 20.1856 12.8638 20.3637 12.7326 20.495C12.6013 20.6263 12.4232 20.7 12.2376 20.7H11.7976C11.6119 20.7 11.4339 20.6263 11.3026 20.495C11.1713 20.3637 11.0976 20.1856 11.0976 20V19.82L11.0976 19.8187C11.097 19.24 10.9442 18.6716 10.6546 18.1706C10.3653 17.6701 9.94971 17.2545 9.44931 16.9652C9.44873 16.9648 9.44816 16.9645 9.44758 16.9642L9.02099 16.7161L9.01758 16.7142C8.51592 16.4245 7.94685 16.272 7.36758 16.272C6.79651 16.272 6.23537 16.4202 5.73894 16.7019L5.60582 16.7729C5.5931 16.7797 5.58049 16.7867 5.568 16.7939C5.40737 16.8866 5.21654 16.9117 5.0374 16.8638C4.85834 16.8159 4.70559 16.699 4.61263 16.5387C4.61259 16.5386 4.61255 16.5385 4.6125 16.5384L4.39366 16.1604C4.39351 16.1602 4.39336 16.1599 4.39321 16.1597C4.30092 15.9992 4.27594 15.8087 4.32376 15.6298C4.37167 15.4507 4.48869 15.2979 4.64916 15.2049L4.66642 15.1947L4.80819 15.1097L18.8876 12.25M17.5876 12.2478C17.5876 12.2468 17.5876 12.2458 17.5876 12.2448L18.8876 12.25M17.5876 12.2478V12.25H18.8876M17.5876 12.2478V11.7522M18.8876 12.25V11.75M17.5876 11.7522C17.5876 11.7532 17.5876 11.7542 17.5876 11.7552L18.8876 11.75M17.5876 11.7522V11.75H18.8876M17.5876 11.7522C17.5858 11.1717 17.7372 10.601 18.0264 10.0977C18.3141 9.5971 18.7281 9.1808 19.227 8.89032L19.3687 8.80526L19.386 8.79508C19.5465 8.70214 19.6635 8.54932 19.7114 8.37018C19.7592 8.19133 19.7342 8.00084 19.642 7.84038M18.8876 11.75L19.642 7.84038M19.642 7.84038L19.6425 7.84135L20.7676 7.19L19.6415 7.83958C19.6417 7.83985 19.6418 7.84011 19.642 7.84038ZM12.9376 4.18133C12.9382 4.76003 13.0909 5.3284 13.3805 5.82941C13.6698 6.32984 14.0854 6.74549 14.5858 7.0348M12.9376 4.18133L14.5858 7.0348M14.5858 7.0348C14.5864 7.03514 14.587 7.03549 14.5876 7.03583L14.5858 7.0348ZM19.4227 7.46158L20.5476 6.81L19.4225 7.46135C19.4226 7.46142 19.4226 7.4615 19.4227 7.46158ZM18.2962 7.29806C18.3034 7.29401 18.3105 7.28994 18.3176 7.28583L17.6676 6.16L18.2793 7.30706L18.2962 7.29806Z" stroke="#CBCBCB" stroke-width="2.6" stroke-linecap="round" stroke-linejoin="round"/>
<path d="M11.0976 4.18V4.18133C11.097 4.76003 10.9442 5.3284 10.6546 5.82941C10.3654 6.32981 9.94979 6.74544 9.44946 7.03475C9.44883 7.03511 9.44821 7.03547 9.44758 7.03583L9.02099 7.28386L9.01758 7.28584L9.01758 7.28583C8.51592 7.57547 7.94685 7.72795 7.36758 7.72795C6.7965 7.72795 6.23535 7.57975 5.73891 7.29804L5.60582 7.22706C5.5931 7.22027 5.58049 7.21328 5.568 7.20608C5.40737 7.11342 5.21654 7.08828 5.0374 7.13618C4.85834 7.18406 4.70559 7.301 4.61263 7.46135C4.61259 7.46142 4.61255 7.4615 4.6125 7.46158L4.39366 7.83958C4.39353 7.83979 4.39341 7.84001 4.39328 7.84023C4.30093 8.00072 4.27593 8.19128 4.32376 8.37018C4.37167 8.54932 4.48869 8.70214 4.64916 8.79508C4.67278 8.80876 4.69597 8.82319 4.71869 8.83834L4.83817 8.91799C5.31884 9.20471 5.71892 9.60913 6.00049 10.0934C6.28995 10.5913 6.44408 11.1563 6.44756 11.7322L6.4476 11.74H6.44758V12.2477V12.25H5.14758C5.14898 12.6024 5.05723 12.949 4.88162 13.2545C4.70602 13.5601 4.45279 13.8138 4.14758 13.99L11.0976 4.18ZM11.0976 4.18V4C11.0976 3.81435 11.1713 3.6363 11.3026 3.50503C11.4339 3.37375 11.6119 3.3 11.7976 3.3H12.2376C12.4232 3.3 12.6013 3.37375 12.7326 3.50503C12.8638 3.6363 12.9376 3.81435 12.9376 4V4.18L12.9376 4.18133M11.0976 4.18L12.9376 4.18133M17.5876 12.2478C17.5858 12.8283 17.7372 13.399 18.0264 13.9023C18.3162 14.4064 18.734 14.8251 19.2376 15.1158C19.2502 15.1231 19.263 15.1302 19.2758 15.1371L19.4005 15.2036C19.5535 15.2972 19.665 15.4461 19.7114 15.6198C19.7593 15.799 19.7342 15.9898 19.6415 16.1504L19.6415 16.1504L19.6353 16.1613L19.4199 16.5432C19.3267 16.7012 19.1751 16.8164 18.9978 16.8638C18.8186 16.9117 18.6278 16.8866 18.4672 16.7939C18.4547 16.7867 18.4421 16.7797 18.4293 16.7729L18.2962 16.7019C17.7998 16.4202 17.2386 16.272 16.6676 16.272C16.0883 16.272 15.5192 16.4245 15.0176 16.7142L15.0142 16.7161L14.5876 16.9642C14.587 16.9645 14.5865 16.9648 14.5859 16.9651C14.0855 17.2544 13.6698 17.6701 13.3805 18.1706C13.0909 18.6716 12.9382 19.24 12.9376 19.8187V19.82V20C12.9376 20.1856 12.8638 20.3637 12.7326 20.495C12.6013 20.6263 12.4232 20.7 12.2376 20.7H11.7976C11.6119 20.7 11.4339 20.6263 11.3026 20.495C11.1713 20.3637 11.0976 20.1856 11.0976 20V19.82L11.0976 19.8187C11.097 19.24 10.9442 18.6716 10.6546 18.1706C10.3653 17.6701 9.94971 17.2545 9.44931 16.9652C9.44873 16.9648 9.44816 16.9645 9.44758 16.9642L9.02099 16.7161L9.01758 16.7142C8.51592 16.4245 7.94685 16.272 7.36758 16.272C6.79651 16.272 6.23537 16.4202 5.73894 16.7019L5.60582 16.7729C5.5931 16.7797 5.58049 16.7867 5.568 16.7939C5.40737 16.8866 5.21654 16.9117 5.0374 16.8638C4.85834 16.8159 4.70559 16.699 4.61263 16.5387C4.61259 16.5386 4.61255 16.5385 4.6125 16.5384L4.39366 16.1604C4.39351 16.1602 4.39336 16.1599 4.39321 16.1597C4.30092 15.9992 4.27594 15.8087 4.32376 15.6298C4.37167 15.4507 4.48869 15.2979 4.64916 15.2049L4.66642 15.1947L4.80819 15.1097L18.8876 12.25M17.5876 12.2478C17.5876 12.2468 17.5876 12.2458 17.5876 12.2448L18.8876 12.25M17.5876 12.2478V12.25H18.8876M17.5876 12.2478V11.7522M18.8876 12.25V11.75M17.5876 11.7522C17.5876 11.7532 17.5876 11.7542 17.5876 11.7552L18.8876 11.75M17.5876 11.7522V11.75H18.8876M17.5876 11.7522C17.5858 11.1717 17.7372 10.601 18.0264 10.0977C18.3141 9.5971 18.7281 9.1808 19.227 8.89032L19.3687 8.80526L19.386 8.79508C19.5465 8.70214 19.6635 8.54932 19.7114 8.37018C19.7592 8.19133 19.7342 8.00084 19.642 7.84038M18.8876 11.75L19.642 7.84038M19.642 7.84038L19.6425 7.84135L20.7676 7.19L19.6415 7.83958C19.6417 7.83985 19.6418 7.84011 19.642 7.84038ZM12.9376 4.18133C12.9382 4.76003 13.0909 5.3284 13.3805 5.82941C13.6698 6.32984 14.0854 6.74549 14.5858 7.0348M12.9376 4.18133L14.5858 7.0348M14.5858 7.0348C14.5864 7.03514 14.587 7.03549 14.5876 7.03583L14.5858 7.0348ZM19.4227 7.46158L20.5476 6.81L19.4225 7.46135C19.4226 7.46142 19.4226 7.4615 19.4227 7.46158ZM18.2962 7.29806C18.3034 7.29401 18.3105 7.28994 18.3176 7.28583L17.6676 6.16L18.2793 7.30706L18.2962 7.29806Z" stroke="white" stroke-width="2.6" stroke-linecap="round" stroke-linejoin="round"/>
<path d="M12 17C14.7614 17 17 14.7614 17 12C17 9.23858 14.7614 7 12 7C9.23858 7 7 9.23858 7 12C7 14.7614 9.23858 17 12 17Z" stroke="white" stroke-width="2" stroke-linecap="round" stroke-linejoin="round"/>
</svg>
